<?xml version="1.0" encoding="UTF-8" standalone="no"?>
<!-- Created with Inkscape (http://www.inkscape.org/) -->

<svg
   xmlns:dc="http://purl.org/dc/elements/1.1/"
   xmlns:cc="http://creativecommons.org/ns#"
   xmlns:rdf="http://www.w3.org/1999/02/22-rdf-syntax-ns#"
   xmlns:svg="http://www.w3.org/2000/svg"
   xmlns="http://www.w3.org/2000/svg"
   xmlns:sodipodi="http://sodipodi.sourceforge.net/DTD/sodipodi-0.dtd"
   xmlns:inkscape="http://www.inkscape.org/namespaces/inkscape"
   width="210mm"
   height="297mm"
   viewBox="0 0 744.09448819 1052.3622047"
   id="svg2"
   version="1.1"
   inkscape:version="0.91 r"
   sodipodi:docname="logo.svg">
  <defs
     id="defs4" />
  <sodipodi:namedview
     id="base"
     pagecolor="#ffffff"
     bordercolor="#666666"
     borderopacity="1.0"
     inkscape:pageopacity="0.0"
     inkscape:pageshadow="2"
     inkscape:zoom="2.8"
     inkscape:cx="544.53455"
     inkscape:cy="719.62266"
     inkscape:document-units="px"
     inkscape:current-layer="g4217"
     showgrid="false"
     inkscape:window-width="1680"
     inkscape:window-height="998"
     inkscape:window-x="0"
     inkscape:window-y="0"
     inkscape:window-maximized="1" />
  <metadata
     id="metadata7">
    <rdf:RDF>
      <cc:Work
         rdf:about="">
        <dc:format>image/svg+xml</dc:format>
        <dc:type
           rdf:resource="http://purl.org/dc/dcmitype/StillImage" />
        <dc:title />
      </cc:Work>
    </rdf:RDF>
  </metadata>
  <g
     inkscape:label="Ebene 1"
     inkscape:groupmode="layer"
     id="layer1">
    <g
       id="g4217">
      <text
         sodipodi:linespacing="125%"
         id="text4136"
         y="414.4509"
         x="595.75671"
         style="font-style:normal;font-weight:normal;font-size:55.24227524px;line-height:125%;font-family:sans-serif;letter-spacing:0px;word-spacing:0px;fill:#000000;fill-opacity:1;stroke:none;stroke-width:1px;stroke-linecap:butt;stroke-linejoin:miter;stroke-opacity:1"
         xml:space="preserve"
         inkscape:export-xdpi="90"
         inkscape:export-ydpi="90"><tspan
           style="font-style:normal;font-variant:normal;font-weight:normal;font-stretch:normal;font-family:Dingbats;-inkscape-font-specification:Dingbats"
           y="414.4509"
           x="595.75671"
           id="tspan4138"
           sodipodi:role="line">R</tspan></text>
      <path
         sodipodi:nodetypes="ccccccccccccc"
         inkscape:connector-curvature="0"
         id="path4141"
         d="m 499.31306,296.15694 c -18.4081,5.22131 -30.02294,27.34918 -23.83294,45.48713 5.31057,18.70236 27.38204,29.9695 45.64258,23.25976 18.29415,-5.67163 29.08226,-27.45343 22.43945,-45.43164 -1.35385,-3.95909 -3.41012,-7.67598 -6.04297,-10.92773 3.30328,-1.50752 6.3204,-7.25307 1.89844,-9.29102 -3.36841,-1.84436 -5.71104,3.29466 -7.80859,3.48047 -4.19341,-3.25937 -9.11579,-5.58692 -14.31055,-6.70508 m -7.63477,6.90039 c 17.12313,-0.59998 31.48004,17.03569 27.48047,33.67774 -2.89547,17.09815 -23.4818,27.63646 -39.04297,19.92773 -15.7025,-6.51495 -21.63889,-28.26599 -11.29687,-41.8125 5.15475,-7.32488 13.89489,-11.86202 22.85937,-11.79297 z"
         style="clip-rule:evenodd;fill-rule:evenodd" />
      <path
         sodipodi:nodetypes="ccccccc"
         inkscape:connector-curvature="0"
         id="path4141-5"
         d="m 624.44127,365.63614 c -2.59128,-2.54799 -2.04877,-6.28604 0.75749,-6.67028 4.26281,-1.74096 1.80837,-8.54459 -2.60742,-7.40625 -5.96027,10e-4 -11.92065,-0.003 -17.88086,0.002 l 0,-5e-5 c -4.93962,-0.11502 -4.83596,7.99971 0.10156,7.75391 2.63024,-0.2347 1.49453,5.14252 -0.36388,6.46426"
         style="clip-rule:evenodd;fill:#ff0000;fill-rule:evenodd"
         inkscape:export-xdpi="90"
         inkscape:export-ydpi="90" />
      <text
         sodipodi:linespacing="125%"
         id="text4136-2"
         y="342.70886"
         x="493.99338"
         style="font-style:normal;font-weight:normal;font-size:40px;line-height:125%;font-family:sans-serif;letter-spacing:0px;word-spacing:0px;fill:#ff0000;fill-opacity:1;stroke:none;stroke-width:1px;stroke-linecap:butt;stroke-linejoin:miter;stroke-opacity:1"
         xml:space="preserve"><tspan
           style="font-style:normal;font-variant:normal;font-weight:normal;font-stretch:normal;font-family:'Arial Black';-inkscape-font-specification:'Arial Black, ';fill:#ff0000"
           y="342.70886"
           x="493.99338"
           id="tspan4138-9"
           sodipodi:role="line">R</tspan></text>
      <path
         style="opacity:1;fill:none;fill-opacity:1;stroke:#000000;stroke-width:6;stroke-linecap:round;stroke-miterlimit:6;stroke-dasharray:none;stroke-dashoffset:2.21689987;stroke-opacity:1"
         d="m 626.12699,364.94137 c 11.32149,4.404 19.75303,14.94227 20.84804,27.863 1.5324,18.08168 -11.88344,33.98202 -29.96513,35.51442 -18.08168,1.53239 -33.98204,-11.88344 -35.51443,-29.96513 -0.22863,-2.69772 -0.12451,-5.34687 0.27818,-7.907 1.84604,-11.73589 9.96664,-21.60097 21.07235,-25.69657"
         id="path4185"
         inkscape:connector-curvature="0"
         sodipodi:nodetypes="cssssc"
         inkscape:export-xdpi="90"
         inkscape:export-ydpi="90" />
    </g>
  </g>
</svg>
